<?xml version="1.0" encoding="UTF-8" standalone="no"?><svg xmlns="http://www.w3.org/2000/svg" xmlns:xlink="http://www.w3.org/1999/xlink" contentScriptType="application/ecmascript" contentStyleType="text/css" height="683px" preserveAspectRatio="none" style="width:763px;height:683px;background:#FFFFFF;" version="1.1" viewBox="0 0 763 683" width="763px" zoomAndPan="magnify"><defs><filter height="300%" id="f1ltnj8bawdjwf" width="300%" x="-1" y="-1"><feGaussianBlur result="blurOut" stdDeviation="2.0"/><feColorMatrix in="blurOut" result="blurOut2" type="matrix" values="0 0 0 0 0 0 0 0 0 0 0 0 0 0 0 0 0 0 .4 0"/><feOffset dx="4.0" dy="4.0" in="blurOut2" result="blurOut3"/><feBlend in="SourceGraphic" in2="blurOut3" mode="normal"/></filter></defs><g><!--MD5=[7421f545a0d8420c5bec41e74b387d9c]
class Employee--><rect codeLine="1" fill="#FEFECE" filter="url(#f1ltnj8bawdjwf)" height="89.5078" id="Employee" style="stroke:#A80036;stroke-width:1.5;" width="180" x="269" y="7"/><ellipse cx="326.75" cy="23" fill="#B4A7E5" rx="11" ry="11" style="stroke:#A80036;stroke-width:1.0;"/><path d="M327.75,20 L327.75,26 L329.75,26 L330.2344,26 L330.75,26.625 L330.75,27 L330.75,27.375 L330.2344,28 L329.75,28 L323.75,28 L323.2656,28 L322.75,27.375 L322.75,27 L322.75,26.625 L323.2656,26 L323.75,26 L325.75,26 L325.75,20 L323.75,20 L323.2656,20 L322.75,19.375 L322.75,19 L322.75,18.625 L323.2656,18 L323.75,18 L329.75,18 L330.2344,18 L330.75,18.625 L330.75,19 L330.75,19.375 L330.2344,20 L329.75,20 L327.75,20 Z " fill="#000000"/><text fill="#000000" font-family="sans-serif" font-size="12" font-style="italic" lengthAdjust="spacing" textLength="56" x="347.25" y="27.9102">Employee</text><line style="stroke:#A80036;stroke-width:1.5;" x1="270" x2="448" y1="39" y2="39"/><line style="stroke:#A80036;stroke-width:1.5;" x1="270" x2="448" y1="47" y2="47"/><ellipse cx="280" cy="58" fill="#84BE84" rx="3" ry="3" style="stroke:#038048;stroke-width:1.0;"/><text fill="#000000" font-family="sans-serif" font-size="11" lengthAdjust="spacing" textLength="81" x="289" y="62.4189">String getName()</text><ellipse cx="280" cy="71.8359" fill="#84BE84" rx="3" ry="3" style="stroke:#038048;stroke-width:1.0;"/><text fill="#000000" font-family="sans-serif" font-size="11" lengthAdjust="spacing" textLength="62" x="289" y="76.2549">String getId()</text><ellipse cx="280" cy="85.6719" fill="#84BE84" rx="3" ry="3" style="stroke:#038048;stroke-width:1.0;"/><text fill="#000000" font-family="sans-serif" font-size="11" lengthAdjust="spacing" textLength="154" x="289" y="90.0908">double getCurrentMonthSalary()</text><!--MD5=[c9a4ed5d90474aaa7a45e56386c59e04]
class EmployeeClass--><rect codeLine="7" fill="#FEFECE" filter="url(#f1ltnj8bawdjwf)" height="131.0156" id="EmployeeClass" style="stroke:#A80036;stroke-width:1.5;" width="180" x="269" y="157"/><ellipse cx="311.45" cy="173" fill="#A9DCDF" rx="11" ry="11" style="stroke:#A80036;stroke-width:1.0;"/><path d="M313.2,174.5 L309.9031,174.5 L309.4656,175.5 L309.4656,175.5 L309.9344,175.5 L310.45,176.125 L310.45,176.5 L310.45,176.875 L309.9344,177.5 L309.4656,177.5 L307.575,177.5 L306.9656,177.5 L306.45,176.875 L306.45,176.5 L306.45,176.125 L306.9656,175.5 L307.575,175.5 L309.8875,169.5 L309.0125,169.5 L307.9656,169.5 L307.45,168.875 L307.45,168.5 L307.45,168.125 L307.9656,167.5 L309.0125,167.5 L312.6844,167.5 L315.3719,175.5 L315.9344,175.5 L315.9344,175.5 L316.45,176.125 L316.45,176.5 L316.45,176.875 L315.9344,177.5 L315.3719,177.5 L313.4813,177.5 L312.9656,177.5 L312.45,176.875 L312.45,176.5 L312.45,176.125 L312.9656,175.5 L313.4813,175.5 L313.4813,175.5 L313.2,174.5 Z M312.6531,172.5 L311.45,168.9219 L310.4188,172.5 L312.6531,172.5 Z " fill="#000000"/><text fill="#000000" font-family="sans-serif" font-size="12" font-style="italic" lengthAdjust="spacing" textLength="87" x="331.55" y="177.9102">EmployeeClass</text><line style="stroke:#A80036;stroke-width:1.5;" x1="270" x2="448" y1="189" y2="189"/><rect fill="none" height="6" style="stroke:#C82930;stroke-width:1.0;" width="6" x="277" y="197"/><text fill="#000000" font-family="sans-serif" font-size="11" lengthAdjust="spacing" textLength="57" x="289" y="204.4189">String name</text><rect fill="none" height="6" style="stroke:#C82930;stroke-width:1.0;" width="6" x="277" y="210.8359"/><text fill="#000000" font-family="sans-serif" font-size="11" lengthAdjust="spacing" textLength="39" x="289" y="218.2549">String id</text><rect fill="none" height="6" style="stroke:#C82930;stroke-width:1.0;" width="6" x="277" y="224.6719"/><text fill="#000000" font-family="sans-serif" font-size="11" lengthAdjust="spacing" textLength="130" x="289" y="232.0908">Collection&lt;Salary&gt; salaries</text><line style="stroke:#A80036;stroke-width:1.5;" x1="270" x2="448" y1="238.5078" y2="238.5078"/><ellipse cx="280" cy="249.5078" fill="#84BE84" rx="3" ry="3" style="stroke:#038048;stroke-width:1.0;"/><text fill="#000000" font-family="sans-serif" font-size="11" lengthAdjust="spacing" textLength="81" x="289" y="253.9268">String getName()</text><ellipse cx="280" cy="263.3438" fill="#84BE84" rx="3" ry="3" style="stroke:#038048;stroke-width:1.0;"/><text fill="#000000" font-family="sans-serif" font-size="11" lengthAdjust="spacing" textLength="62" x="289" y="267.7627">String getId()</text><ellipse cx="280" cy="277.1797" fill="#84BE84" rx="3" ry="3" style="stroke:#038048;stroke-width:1.0;"/><text fill="#000000" font-family="sans-serif" font-size="11" lengthAdjust="spacing" textLength="154" x="289" y="281.5986">double getCurrentMonthSalary()</text><!--MD5=[ec4ebea2c242db842b33f11583c32e06]
class Salary--><rect codeLine="18" fill="#FEFECE" filter="url(#f1ltnj8bawdjwf)" height="103.3438" id="Salary" style="stroke:#A80036;stroke-width:1.5;" width="112" x="7" y="348"/><ellipse cx="42.7" cy="364" fill="#ADD1B2" rx="11" ry="11" style="stroke:#A80036;stroke-width:1.0;"/><path d="M44.7,360.5 Q44.9031,360 45.1375,359.75 Q45.3719,359.5 45.6375,359.5 Q46.1063,359.5 46.4031,359.7813 Q46.7,360.0625 46.7,360.7188 L46.7,362.2813 Q46.7,362.9375 46.4188,363.2188 Q46.1375,363.5 45.7,363.5 Q45.3094,363.5 45.0594,363.3281 Q44.8094,363.1563 44.7,362.7031 Q44.6531,362.3906 44.4813,362.2188 Q44.1688,361.8906 43.6063,361.7031 Q43.0438,361.5 42.4813,361.5 Q41.7781,361.5 41.1844,361.7813 Q40.6063,362.0625 40.1531,362.6875 Q39.7,363.3125 39.7,364.1719 L39.7,365.0938 Q39.7,366.125 40.5438,366.8125 Q41.3875,367.5 42.8875,367.5 Q43.7781,367.5 44.4031,367.2969 Q44.7625,367.1875 45.1688,366.8281 Q45.4344,366.625 45.575,366.5625 Q45.7156,366.5 45.8875,366.5 Q46.2156,366.5 46.45,366.7656 Q46.7,367.0156 46.7,367.375 Q46.7,367.7188 46.3563,368.125 Q45.8563,368.7188 45.0594,369.0469 Q44.0125,369.5 42.7313,369.5 Q41.2313,369.5 40.0281,368.9063 Q39.0594,368.4375 38.3719,367.4219 Q37.7,366.4063 37.7,365.2031 L37.7,364.1094 Q37.7,362.8594 38.2938,361.7656 Q38.9031,360.6719 39.95,360.0938 Q41.0125,359.5 42.2,359.5 Q42.9188,359.5 43.5438,359.75 Q44.1688,360 44.7,360.5 Z " fill="#000000"/><text fill="#000000" font-family="sans-serif" font-size="12" lengthAdjust="spacing" textLength="34" x="61.3" y="368.9102">Salary</text><line style="stroke:#A80036;stroke-width:1.5;" x1="8" x2="118" y1="380" y2="380"/><rect fill="none" height="6" style="stroke:#C82930;stroke-width:1.0;" width="6" x="15" y="388"/><text fill="#000000" font-family="sans-serif" font-size="11" lengthAdjust="spacing" textLength="46" x="27" y="395.4189">Date date</text><rect fill="none" height="6" style="stroke:#C82930;stroke-width:1.0;" width="6" x="15" y="401.8359"/><text fill="#000000" font-family="sans-serif" font-size="11" lengthAdjust="spacing" textLength="61" x="27" y="409.2549">double value</text><line style="stroke:#A80036;stroke-width:1.5;" x1="8" x2="118" y1="415.6719" y2="415.6719"/><ellipse cx="18" cy="426.6719" fill="#84BE84" rx="3" ry="3" style="stroke:#038048;stroke-width:1.0;"/><text fill="#000000" font-family="sans-serif" font-size="11" lengthAdjust="spacing" textLength="70" x="27" y="431.0908">Date getDate()</text><ellipse cx="18" cy="440.5078" fill="#84BE84" rx="3" ry="3" style="stroke:#038048;stroke-width:1.0;"/><text fill="#000000" font-family="sans-serif" font-size="11" lengthAdjust="spacing" textLength="86" x="27" y="444.9268">double getValue()</text><!--MD5=[608f0ae612830bcb8455b9bef4bf568e]
class SalesPerson--><rect codeLine="27" fill="#FEFECE" filter="url(#f1ltnj8bawdjwf)" height="75.6719" id="SalesPerson" style="stroke:#A80036;stroke-width:1.5;" width="180" x="154" y="361.5"/><ellipse cx="203.75" cy="377.5" fill="#ADD1B2" rx="11" ry="11" style="stroke:#A80036;stroke-width:1.0;"/><path d="M205.75,374 Q205.9531,373.5 206.1875,373.25 Q206.4219,373 206.6875,373 Q207.1563,373 207.4531,373.2813 Q207.75,373.5625 207.75,374.2188 L207.75,375.7813 Q207.75,376.4375 207.4688,376.7188 Q207.1875,377 206.75,377 Q206.3594,377 206.1094,376.8281 Q205.8594,376.6563 205.75,376.2031 Q205.7031,375.8906 205.5313,375.7188 Q205.2188,375.3906 204.6563,375.2031 Q204.0938,375 203.5313,375 Q202.8281,375 202.2344,375.2813 Q201.6563,375.5625 201.2031,376.1875 Q200.75,376.8125 200.75,377.6719 L200.75,378.5938 Q200.75,379.625 201.5938,380.3125 Q202.4375,381 203.9375,381 Q204.8281,381 205.4531,380.7969 Q205.8125,380.6875 206.2188,380.3281 Q206.4844,380.125 206.625,380.0625 Q206.7656,380 206.9375,380 Q207.2656,380 207.5,380.2656 Q207.75,380.5156 207.75,380.875 Q207.75,381.2188 207.4063,381.625 Q206.9063,382.2188 206.1094,382.5469 Q205.0625,383 203.7813,383 Q202.2813,383 201.0781,382.4063 Q200.1094,381.9375 199.4219,380.9219 Q198.75,379.9063 198.75,378.7031 L198.75,377.6094 Q198.75,376.3594 199.3438,375.2656 Q199.9531,374.1719 201,373.5938 Q202.0625,373 203.25,373 Q203.9688,373 204.5938,373.25 Q205.2188,373.5 205.75,374 Z " fill="#000000"/><text fill="#000000" font-family="sans-serif" font-size="12" lengthAdjust="spacing" textLength="72" x="224.25" y="382.4102">SalesPerson</text><line style="stroke:#A80036;stroke-width:1.5;" x1="155" x2="333" y1="393.5" y2="393.5"/><rect fill="none" height="6" style="stroke:#C82930;stroke-width:1.0;" width="6" x="162" y="401.5"/><text fill="#000000" font-family="sans-serif" font-size="11" lengthAdjust="spacing" textLength="108" x="174" y="408.9189">Collection&lt;Sale&gt; sales</text><line style="stroke:#A80036;stroke-width:1.5;" x1="155" x2="333" y1="415.3359" y2="415.3359"/><ellipse cx="165" cy="426.3359" fill="#84BE84" rx="3" ry="3" style="stroke:#038048;stroke-width:1.0;"/><text fill="#000000" font-family="sans-serif" font-size="11" lengthAdjust="spacing" textLength="154" x="174" y="430.7549">double getCurrentMonthSalary()</text><!--MD5=[e0bd77868626c22cfc0c5aeed1b8d67f]
class Sale--><rect codeLine="32" fill="#FEFECE" filter="url(#f1ltnj8bawdjwf)" height="158.6875" id="Sale" style="stroke:#A80036;stroke-width:1.5;" width="190" x="149" y="511"/><ellipse cx="227.25" cy="527" fill="#ADD1B2" rx="11" ry="11" style="stroke:#A80036;stroke-width:1.0;"/><path d="M229.25,523.5 Q229.4531,523 229.6875,522.75 Q229.9219,522.5 230.1875,522.5 Q230.6563,522.5 230.9531,522.7813 Q231.25,523.0625 231.25,523.7188 L231.25,525.2813 Q231.25,525.9375 230.9688,526.2188 Q230.6875,526.5 230.25,526.5 Q229.8594,526.5 229.6094,526.3281 Q229.3594,526.1563 229.25,525.7031 Q229.2031,525.3906 229.0313,525.2188 Q228.7188,524.8906 228.1563,524.7031 Q227.5938,524.5 227.0313,524.5 Q226.3281,524.5 225.7344,524.7813 Q225.1563,525.0625 224.7031,525.6875 Q224.25,526.3125 224.25,527.1719 L224.25,528.0938 Q224.25,529.125 225.0938,529.8125 Q225.9375,530.5 227.4375,530.5 Q228.3281,530.5 228.9531,530.2969 Q229.3125,530.1875 229.7188,529.8281 Q229.9844,529.625 230.125,529.5625 Q230.2656,529.5 230.4375,529.5 Q230.7656,529.5 231,529.7656 Q231.25,530.0156 231.25,530.375 Q231.25,530.7188 230.9063,531.125 Q230.4063,531.7188 229.6094,532.0469 Q228.5625,532.5 227.2813,532.5 Q225.7813,532.5 224.5781,531.9063 Q223.6094,531.4375 222.9219,530.4219 Q222.25,529.4063 222.25,528.2031 L222.25,527.1094 Q222.25,525.8594 222.8438,524.7656 Q223.4531,523.6719 224.5,523.0938 Q225.5625,522.5 226.75,522.5 Q227.4688,522.5 228.0938,522.75 Q228.7188,523 229.25,523.5 Z " fill="#000000"/><text fill="#000000" font-family="sans-serif" font-size="12" lengthAdjust="spacing" textLength="25" x="247.75" y="531.9102">Sale</text><line style="stroke:#A80036;stroke-width:1.5;" x1="150" x2="338" y1="543" y2="543"/><rect fill="none" height="6" style="stroke:#C82930;stroke-width:1.0;" width="6" x="157" y="551"/><text fill="#000000" font-family="sans-serif" font-size="11" lengthAdjust="spacing" textLength="124" x="169" y="558.4189">SalesPerson salesPerson</text><rect fill="none" height="6" style="stroke:#C82930;stroke-width:1.0;" width="6" x="157" y="564.8359"/><text fill="#000000" font-family="sans-serif" font-size="11" lengthAdjust="spacing" textLength="91" x="169" y="572.2549">double commission</text><rect fill="none" height="6" style="stroke:#C82930;stroke-width:1.0;" width="6" x="157" y="578.6719"/><text fill="#000000" font-family="sans-serif" font-size="11" lengthAdjust="spacing" textLength="46" x="169" y="586.0908">Date date</text><rect fill="none" height="6" style="stroke:#C82930;stroke-width:1.0;" width="6" x="157" y="592.5078"/><text fill="#000000" font-family="sans-serif" font-size="11" lengthAdjust="spacing" textLength="141" x="169" y="599.9268">Collection&lt;Product&gt; products</text><line style="stroke:#A80036;stroke-width:1.5;" x1="150" x2="338" y1="606.3438" y2="606.3438"/><ellipse cx="160" cy="617.3438" fill="#84BE84" rx="3" ry="3" style="stroke:#038048;stroke-width:1.0;"/><text fill="#000000" font-family="sans-serif" font-size="11" lengthAdjust="spacing" textLength="148" x="169" y="621.7627">SalesPerson getSalesPerson()</text><ellipse cx="160" cy="631.1797" fill="#84BE84" rx="3" ry="3" style="stroke:#038048;stroke-width:1.0;"/><text fill="#000000" font-family="sans-serif" font-size="11" lengthAdjust="spacing" textLength="115" x="169" y="635.5986">double getCommission()</text><ellipse cx="160" cy="645.0156" fill="#84BE84" rx="3" ry="3" style="stroke:#038048;stroke-width:1.0;"/><text fill="#000000" font-family="sans-serif" font-size="11" lengthAdjust="spacing" textLength="70" x="169" y="649.4346">Date getDate()</text><ellipse cx="160" cy="658.8516" fill="#84BE84" rx="3" ry="3" style="stroke:#038048;stroke-width:1.0;"/><text fill="#000000" font-family="sans-serif" font-size="11" lengthAdjust="spacing" textLength="164" x="169" y="663.2705">Collection&lt;Product&gt; getProducts()</text><!--MD5=[d7ec36991307260abecacee07c9a07d1]
class Clerk--><rect codeLine="45" fill="#FEFECE" filter="url(#f1ltnj8bawdjwf)" height="75.6719" id="Clerk" style="stroke:#A80036;stroke-width:1.5;" width="210" x="369" y="361.5"/><ellipse cx="455.25" cy="377.5" fill="#ADD1B2" rx="11" ry="11" style="stroke:#A80036;stroke-width:1.0;"/><path d="M457.25,374 Q457.4531,373.5 457.6875,373.25 Q457.9219,373 458.1875,373 Q458.6563,373 458.9531,373.2813 Q459.25,373.5625 459.25,374.2188 L459.25,375.7813 Q459.25,376.4375 458.9688,376.7188 Q458.6875,377 458.25,377 Q457.8594,377 457.6094,376.8281 Q457.3594,376.6563 457.25,376.2031 Q457.2031,375.8906 457.0313,375.7188 Q456.7188,375.3906 456.1563,375.2031 Q455.5938,375 455.0313,375 Q454.3281,375 453.7344,375.2813 Q453.1563,375.5625 452.7031,376.1875 Q452.25,376.8125 452.25,377.6719 L452.25,378.5938 Q452.25,379.625 453.0938,380.3125 Q453.9375,381 455.4375,381 Q456.3281,381 456.9531,380.7969 Q457.3125,380.6875 457.7188,380.3281 Q457.9844,380.125 458.125,380.0625 Q458.2656,380 458.4375,380 Q458.7656,380 459,380.2656 Q459.25,380.5156 459.25,380.875 Q459.25,381.2188 458.9063,381.625 Q458.4063,382.2188 457.6094,382.5469 Q456.5625,383 455.2813,383 Q453.7813,383 452.5781,382.4063 Q451.6094,381.9375 450.9219,380.9219 Q450.25,379.9063 450.25,378.7031 L450.25,377.6094 Q450.25,376.3594 450.8438,375.2656 Q451.4531,374.1719 452.5,373.5938 Q453.5625,373 454.75,373 Q455.4688,373 456.0938,373.25 Q456.7188,373.5 457.25,374 Z " fill="#000000"/><text fill="#000000" font-family="sans-serif" font-size="12" lengthAdjust="spacing" textLength="29" x="475.75" y="382.4102">Clerk</text><line style="stroke:#A80036;stroke-width:1.5;" x1="370" x2="578" y1="393.5" y2="393.5"/><rect fill="none" height="6" style="stroke:#C82930;stroke-width:1.0;" width="6" x="377" y="401.5"/><text fill="#000000" font-family="sans-serif" font-size="11" lengthAdjust="spacing" textLength="184" x="389" y="408.9189">Collection&lt;ProductivityReport&gt; reports</text><line style="stroke:#A80036;stroke-width:1.5;" x1="370" x2="578" y1="415.3359" y2="415.3359"/><ellipse cx="380" cy="426.3359" fill="#84BE84" rx="3" ry="3" style="stroke:#038048;stroke-width:1.0;"/><text fill="#000000" font-family="sans-serif" font-size="11" lengthAdjust="spacing" textLength="154" x="389" y="430.7549">double getCurrentMonthSalary()</text><!--MD5=[97901935e172f255295ccd3d038a1c6f]
class ProductivityReport--><rect codeLine="49" fill="#FEFECE" filter="url(#f1ltnj8bawdjwf)" height="131.0156" id="ProductivityReport" style="stroke:#A80036;stroke-width:1.5;" width="130" x="409" y="525"/><ellipse cx="424" cy="541" fill="#ADD1B2" rx="11" ry="11" style="stroke:#A80036;stroke-width:1.0;"/><path d="M426,537.5 Q426.2031,537 426.4375,536.75 Q426.6719,536.5 426.9375,536.5 Q427.4063,536.5 427.7031,536.7813 Q428,537.0625 428,537.7188 L428,539.2813 Q428,539.9375 427.7188,540.2188 Q427.4375,540.5 427,540.5 Q426.6094,540.5 426.3594,540.3281 Q426.1094,540.1563 426,539.7031 Q425.9531,539.3906 425.7813,539.2188 Q425.4688,538.8906 424.9063,538.7031 Q424.3438,538.5 423.7813,538.5 Q423.0781,538.5 422.4844,538.7813 Q421.9063,539.0625 421.4531,539.6875 Q421,540.3125 421,541.1719 L421,542.0938 Q421,543.125 421.8438,543.8125 Q422.6875,544.5 424.1875,544.5 Q425.0781,544.5 425.7031,544.2969 Q426.0625,544.1875 426.4688,543.8281 Q426.7344,543.625 426.875,543.5625 Q427.0156,543.5 427.1875,543.5 Q427.5156,543.5 427.75,543.7656 Q428,544.0156 428,544.375 Q428,544.7188 427.6563,545.125 Q427.1563,545.7188 426.3594,546.0469 Q425.3125,546.5 424.0313,546.5 Q422.5313,546.5 421.3281,545.9063 Q420.3594,545.4375 419.6719,544.4219 Q419,543.4063 419,542.2031 L419,541.1094 Q419,539.8594 419.5938,538.7656 Q420.2031,537.6719 421.25,537.0938 Q422.3125,536.5 423.5,536.5 Q424.2188,536.5 424.8438,536.75 Q425.4688,537 426,537.5 Z " fill="#000000"/><text fill="#000000" font-family="sans-serif" font-size="12" lengthAdjust="spacing" textLength="98" x="438" y="545.9102">ProductivityReport</text><line style="stroke:#A80036;stroke-width:1.5;" x1="410" x2="538" y1="557" y2="557"/><rect fill="none" height="6" style="stroke:#C82930;stroke-width:1.0;" width="6" x="417" y="565"/><text fill="#000000" font-family="sans-serif" font-size="11" lengthAdjust="spacing" textLength="46" x="429" y="572.4189">Date date</text><rect fill="none" height="6" style="stroke:#C82930;stroke-width:1.0;" width="6" x="417" y="578.8359"/><text fill="#000000" font-family="sans-serif" font-size="11" lengthAdjust="spacing" textLength="63" x="429" y="586.2549">double score</text><rect fill="none" height="6" style="stroke:#C82930;stroke-width:1.0;" width="6" x="417" y="592.6719"/><text fill="#000000" font-family="sans-serif" font-size="11" lengthAdjust="spacing" textLength="50" x="429" y="600.0908">Clerk clerk</text><line style="stroke:#A80036;stroke-width:1.5;" x1="410" x2="538" y1="606.5078" y2="606.5078"/><ellipse cx="420" cy="617.5078" fill="#84BE84" rx="3" ry="3" style="stroke:#038048;stroke-width:1.0;"/><text fill="#000000" font-family="sans-serif" font-size="11" lengthAdjust="spacing" textLength="70" x="429" y="621.9268">Date getDate()</text><ellipse cx="420" cy="631.3438" fill="#84BE84" rx="3" ry="3" style="stroke:#038048;stroke-width:1.0;"/><text fill="#000000" font-family="sans-serif" font-size="11" lengthAdjust="spacing" textLength="87" x="429" y="635.7627">double getScore()</text><ellipse cx="420" cy="645.1797" fill="#84BE84" rx="3" ry="3" style="stroke:#038048;stroke-width:1.0;"/><text fill="#000000" font-family="sans-serif" font-size="11" lengthAdjust="spacing" textLength="74" x="429" y="649.5986">Clerk getClerk()</text><!--MD5=[900cdaae151c0cbcf3061480dc327ac1]
class WarehouseWorker--><rect codeLine="61" fill="#FEFECE" filter="url(#f1ltnj8bawdjwf)" height="48" id="WarehouseWorker" style="stroke:#A80036;stroke-width:1.5;" width="135" x="614.5" y="375.5"/><ellipse cx="629.5" cy="391.5" fill="#ADD1B2" rx="11" ry="11" style="stroke:#A80036;stroke-width:1.0;"/><path d="M631.5,388 Q631.7031,387.5 631.9375,387.25 Q632.1719,387 632.4375,387 Q632.9063,387 633.2031,387.2813 Q633.5,387.5625 633.5,388.2188 L633.5,389.7813 Q633.5,390.4375 633.2188,390.7188 Q632.9375,391 632.5,391 Q632.1094,391 631.8594,390.8281 Q631.6094,390.6563 631.5,390.2031 Q631.4531,389.8906 631.2813,389.7188 Q630.9688,389.3906 630.4063,389.2031 Q629.8438,389 629.2813,389 Q628.5781,389 627.9844,389.2813 Q627.4063,389.5625 626.9531,390.1875 Q626.5,390.8125 626.5,391.6719 L626.5,392.5938 Q626.5,393.625 627.3438,394.3125 Q628.1875,395 629.6875,395 Q630.5781,395 631.2031,394.7969 Q631.5625,394.6875 631.9688,394.3281 Q632.2344,394.125 632.375,394.0625 Q632.5156,394 632.6875,394 Q633.0156,394 633.25,394.2656 Q633.5,394.5156 633.5,394.875 Q633.5,395.2188 633.1563,395.625 Q632.6563,396.2188 631.8594,396.5469 Q630.8125,397 629.5313,397 Q628.0313,397 626.8281,396.4063 Q625.8594,395.9375 625.1719,394.9219 Q624.5,393.9063 624.5,392.7031 L624.5,391.6094 Q624.5,390.3594 625.0938,389.2656 Q625.7031,388.1719 626.75,387.5938 Q627.8125,387 629,387 Q629.7188,387 630.3438,387.25 Q630.9688,387.5 631.5,388 Z " fill="#000000"/><text fill="#000000" font-family="sans-serif" font-size="12" lengthAdjust="spacing" textLength="103" x="643.5" y="396.4102">WarehouseWorker</text><line style="stroke:#A80036;stroke-width:1.5;" x1="615.5" x2="748.5" y1="407.5" y2="407.5"/><line style="stroke:#A80036;stroke-width:1.5;" x1="615.5" x2="748.5" y1="415.5" y2="415.5"/><!--MD5=[35c6a70fd93ae216d68c36b5776464dc]
reverse link Employee to EmployeeClass--><path codeLine="16" d="M359,117.5 C359,130.42 359,144 359,156.92 " fill="none" id="Employee-backto-EmployeeClass" style="stroke:#A80036;stroke-width:1.0;stroke-dasharray:7.0,7.0;"/><polygon fill="none" points="352,117.27,359,97.27,366,117.27,352,117.27" style="stroke:#A80036;stroke-width:1.0;"/><!--MD5=[e9f945cb32392eee0058c1020960540a]
link EmployeeClass to Salary--><path codeLine="25" d="M268.88,271.25 C227.82,293.66 178.9,321.27 136,348 C130.51,351.42 124.85,355.08 119.23,358.81 " fill="none" id="EmployeeClass-Salary" style="stroke:#A80036;stroke-width:1.0;"/><text fill="#000000" font-family="sans-serif" font-size="13" lengthAdjust="spacing" textLength="7" x="254.1271" y="272.1336">1</text><text fill="#000000" font-family="sans-serif" font-size="13" lengthAdjust="spacing" textLength="20" x="126.7205" y="350.5914">0..*</text><!--MD5=[c96e247d11885651a7b1b1f08cabff81]
link SalesPerson to Sale--><path codeLine="43" d="M244,437.84 C244,458.71 244,485.54 244,510.81 " fill="none" id="SalesPerson-Sale" style="stroke:#A80036;stroke-width:1.0;"/><text fill="#000000" font-family="sans-serif" font-size="13" lengthAdjust="spacing" textLength="7" x="236.4422" y="458.7747">1</text><text fill="#000000" font-family="sans-serif" font-size="13" lengthAdjust="spacing" textLength="20" x="223.0781" y="500.2518">0..*</text><!--MD5=[267e1833a09cd5c965795da05a573c46]
link Clerk to ProductivityReport--><path codeLine="59" d="M474,437.84 C474,462.58 474,495.7 474,524.68 " fill="none" id="Clerk-ProductivityReport" style="stroke:#A80036;stroke-width:1.0;"/><text fill="#000000" font-family="sans-serif" font-size="13" lengthAdjust="spacing" textLength="7" x="466.4422" y="458.7747">1</text><text fill="#000000" font-family="sans-serif" font-size="13" lengthAdjust="spacing" textLength="20" x="452.9063" y="514.1194">0..*</text><!--MD5=[3b0dac5f02c8c41bc3d82ed23bc06322]
reverse link EmployeeClass to SalesPerson--><path codeLine="63" d="M305.5,304.91 C292.54,324.63 279.32,344.76 268.46,361.27 " fill="none" id="EmployeeClass-backto-SalesPerson" style="stroke:#A80036;stroke-width:1.0;"/><polygon fill="none" points="299.67,301.04,316.5,288.17,311.37,308.72,299.67,301.04" style="stroke:#A80036;stroke-width:1.0;"/><!--MD5=[3c904cb1037f68f049de5c894b43d35b]
reverse link EmployeeClass to Clerk--><path codeLine="64" d="M412.5,304.91 C425.46,324.63 438.68,344.76 449.54,361.27 " fill="none" id="EmployeeClass-backto-Clerk" style="stroke:#A80036;stroke-width:1.0;"/><polygon fill="none" points="406.63,308.72,401.5,288.17,418.33,301.04,406.63,308.72" style="stroke:#A80036;stroke-width:1.0;"/><!--MD5=[0971e420f9ee16c0f41d69b658731d0d]
reverse link EmployeeClass to WarehouseWorker--><path codeLine="65" d="M466.95,278.4 C507.94,299.66 554.88,324.49 597,348 C612.59,356.7 629.54,366.67 644.17,375.43 " fill="none" id="EmployeeClass-backto-WarehouseWorker" style="stroke:#A80036;stroke-width:1.0;"/><polygon fill="none" points="463.73,284.62,449.18,269.22,470.16,272.18,463.73,284.62" style="stroke:#A80036;stroke-width:1.0;"/><!--MD5=[eeddc100a886f0d12d24ce4eba7faef3]
@startuml
interface Employee {
    +String getName()
    +String getId()
    +double getCurrentMonthSalary()
}

abstract class EmployeeClass {
    -String name
    -String id
    -Collection<Salary> salaries
    +String getName()
    +String getId()
    +double getCurrentMonthSalary()
}

Employee <|.. EmployeeClass

class Salary {
    -Date date
    -double value
    +Date getDate()
    +double getValue()
}

EmployeeClass "1" - - "0..*" Salary

class SalesPerson {
    -Collection<Sale> sales
    +double getCurrentMonthSalary()
}

class Sale {
    -SalesPerson salesPerson
    -double commission
    -Date date
    -Collection<Product> products
    +SalesPerson getSalesPerson()
    +double getCommission()
    +Date getDate()
    +Collection<Product> getProducts()
}

SalesPerson "1" - - "0..*" Sale

class Clerk {
    -Collection<ProductivityReport> reports
    +double getCurrentMonthSalary()
}
class ProductivityReport{
    -Date date
    -double score
    -Clerk clerk
    +Date getDate()
    +double getScore()
    +Clerk getClerk()

}

Clerk "1" - - "0..*" ProductivityReport

class WarehouseWorker {}

EmployeeClass <|- - SalesPerson
EmployeeClass <|- - Clerk
EmployeeClass <|- - WarehouseWorker
@enduml

PlantUML version 1.2021.11(Sat Oct 02 14:26:11 BST 2021)
(GPL source distribution)
Java Runtime: OpenJDK Runtime Environment
JVM: OpenJDK 64-Bit Server VM
Default Encoding: Cp1252
Language: pt
Country: PT
--></g></svg>